# xmcd
#
# Track frame offsets: 
#        150
#        20677
#        46707
#        67283
#        79640
#        97285
#        120204
#        139816
#        159767
#        173550
#        188679
#        206436
#        221015
#        236052
#        255196
#        271918
#        281389
#        298562
#        317189
#        337512
#
# Disc length: 4760 seconds
#
# Revision: 0
# Processed by: cddbd v1.5.2PL0 Copyright (c) Steve Scherf et al.
# Submitted via: ExactAudioCopy v0.95b3
#
DISCID=12129614
DTITLE=Laura Nyro   - Selected Recordings - Vol 2 1971 to 1995
DYEAR=1900
DGENRE=
TTITLE0=American Dove
TTITLE1=I Am The Blues
TTITLE2=Stormy Love
TTITLE3=Sexy Mama
TTITLE4=Sweet Blindness
TTITLE5=Mr. Blue
TTITLE6=Crazy Love
TTITLE7=Springblown
TTITLE8=Late For Love
TTITLE9=Mother's Spiritual
TTITLE10=To A Child ...
TTITLE11=And When I Die
TTITLE12=Oh Yeah Maybe Baby (The Heebie Jeebies)
TTITLE13=A Woman Of The World
TTITLE14=I'm So Proud\\Dedicated To The One I Love
TTITLE15=Wind
TTITLE16=Ooh Baby, Baby
TTITLE17=Angel In The Dark
TTITLE18=Sweet Dream Fade
TTITLE19=La La Means I Love You
EXTD=
EXTT0=
EXTT1=
EXTT2=
EXTT3=
EXTT4=
EXTT5=
EXTT6=
EXTT7=
EXTT8=
EXTT9=
EXTT10=
EXTT11=
EXTT12=
EXTT13=
EXTT14=
EXTT15=
EXTT16=
EXTT17=
EXTT18=
EXTT19=
PLAYORDER=
